<svg width="20" height="22" viewBox="0 0 20 22" fill="none" xmlns="http://www.w3.org/2000/svg">
<path d="M1.91038 17.475C1.91038 18.6519 2.86439 19.6059 4.04123 19.6059C5.21806 19.6059 6.17207 18.6519 6.17207 17.475V15.038C6.17207 13.3811 7.51521 12.038 9.17207 12.038H9.93177C11.5886 12.038 12.9318 13.3811 12.9318 15.038V17.475C12.9318 18.6519 13.8858 19.6059 15.0626 19.6059C16.2394 19.6059 17.1935 18.6519 17.1935 17.475V9.63975C17.1935 8.69764 16.7509 7.81024 15.9984 7.24344L11.3568 3.74743C10.2882 2.94252 8.81567 2.94252 7.74701 3.74743L3.10548 7.24344C2.35295 7.81025 1.91038 8.69764 1.91038 9.63975V17.475ZM3 21.5163C1.34314 21.5163 0 20.1731 0 18.5163V8.68532C0 7.74278 0.442966 6.85503 1.19608 6.28827L7.74799 1.35756C8.81626 0.553629 10.2876 0.55363 11.3558 1.35756L17.9078 6.28827C18.6609 6.85503 19.1038 7.74278 19.1038 8.68532V18.5163C19.1038 20.1731 17.7607 21.5163 16.1038 21.5163H14.0214C12.3645 21.5163 11.0214 20.1731 11.0214 18.5163V15.4178C11.0214 14.6063 10.3635 13.9483 9.55192 13.9483C8.74035 13.9483 8.08245 14.6062 8.08245 15.4178V18.5163C8.08245 20.1731 6.73931 21.5163 5.08245 21.5163H3Z" fill="#A563E5"/>
</svg>
