<svg width="19" height="20" viewBox="0 0 19 20" fill="none" xmlns="http://www.w3.org/2000/svg">
<path d="M9.46646 19.0671C7.03784 19.0671 4.92117 18.2676 3.11646 16.6687C1.31189 15.0696 0.27307 13.0651 0 10.6551H1.71671C1.99995 12.5922 2.87173 14.198 4.33204 15.4726C5.7922 16.7473 7.50368 17.3847 9.46646 17.3847C11.6536 17.3847 13.5088 16.623 15.0323 15.0996C16.5558 13.576 17.3176 11.7206 17.3176 9.53354C17.3176 7.34643 16.5558 5.49117 15.0323 3.96775C13.5088 2.44418 11.6536 1.68239 9.46646 1.68239C8.24124 1.68239 7.0931 1.95456 6.02205 2.49891C4.95071 3.04311 4.02816 3.79188 3.25441 4.74523H6.18805V6.42762H0.493725V0.733298H2.17611V3.39057C3.08625 2.31654 4.17621 1.4829 5.446 0.889648C6.71565 0.29655 8.0558 0 9.46646 0C10.7893 0 12.0289 0.25019 13.185 0.75057C14.341 1.2511 15.3489 1.93131 16.2088 2.79119C17.0687 3.65108 17.7489 4.6591 18.2494 5.81523C18.7498 6.97122 19 8.21066 19 9.53354C19 10.8564 18.7498 12.0959 18.2494 13.2518C17.7489 14.4081 17.0687 15.4162 16.2088 16.2761C15.3489 17.136 14.341 17.8161 13.185 18.3165C12.0289 18.8169 10.7893 19.0671 9.46646 19.0671ZM12.8335 14.0502L8.6578 9.87428V3.92557H10.3397V9.1928L14.0154 12.868L12.8335 14.0502Z" fill="#888888"/>
</svg>
