<svg width="20" height="19" viewBox="0 0 20 19" fill="none" xmlns="http://www.w3.org/2000/svg">
<path d="M9.55192 8.91512C8.32605 8.91512 7.27669 8.47871 6.40386 7.60587C5.53086 6.73287 5.09436 5.68343 5.09436 4.45756C5.09436 3.23186 5.53086 2.18259 6.40386 1.30976C7.27669 0.436586 8.32605 0 9.55192 0C10.7778 0 11.8271 0.436586 12.7 1.30976C13.573 2.18259 14.0095 3.23186 14.0095 4.45756C14.0095 5.68343 13.573 6.73287 12.7 7.60587C11.8271 8.47871 10.7778 8.91512 9.55192 8.91512ZM2.83145 18.6143C1.26768 18.6143 0 17.3466 0 15.7828C0 15.1591 0.169388 14.5815 0.508162 14.05C0.846937 13.5185 1.29974 13.1099 1.86657 12.8243C3.12522 12.2072 4.39507 11.7443 5.67613 11.4356C6.95719 11.127 8.24912 10.9727 9.55192 10.9727C10.8547 10.9727 12.1466 11.127 13.4277 11.4356C14.7088 11.7443 15.9786 12.2072 17.2373 12.8243C17.8041 13.1099 18.2569 13.5185 18.5957 14.05C18.9344 14.5815 19.1038 15.1591 19.1038 15.7828C19.1038 17.3466 17.8362 18.6143 16.2724 18.6143H2.83145ZM1.91038 15.7828C1.91038 16.2915 2.32276 16.7039 2.83144 16.7039H16.2724C16.7811 16.7039 17.1935 16.2915 17.1935 15.7828C17.1935 15.5249 17.1187 15.286 16.9693 15.0663C16.8199 14.8469 16.617 14.6678 16.3608 14.5289C15.2635 13.9885 14.1447 13.5791 13.0044 13.3006C11.8639 13.0223 10.7131 12.8831 9.55192 12.8831C8.39091 12.8831 7.2401 13.0223 6.09947 13.3006C4.95919 13.5791 3.84038 13.9885 2.74306 14.5289C2.48681 14.6678 2.28397 14.8469 2.13454 15.0663C1.9851 15.286 1.91038 15.5249 1.91038 15.7828ZM9.55192 7.00474C10.2524 7.00474 10.852 6.75537 11.3507 6.25663C11.8496 5.75773 12.0991 5.15804 12.0991 4.45756C12.0991 3.75709 11.8496 3.15748 11.3507 2.65874C10.852 2.15984 10.2524 1.91038 9.55192 1.91038C8.85144 1.91038 8.25184 2.15984 7.7531 2.65874C7.25419 3.15748 7.00474 3.75709 7.00474 4.45756C7.00474 5.15804 7.25419 5.75773 7.7531 6.25663C8.25184 6.75537 8.85144 7.00474 9.55192 7.00474Z" fill="#8B8B8B"/>
</svg>
