<svg width="21" height="18" viewBox="0 0 21 18" fill="none" xmlns="http://www.w3.org/2000/svg">
<path d="M3.5 17.3333C2.53073 17.3333 1.70512 16.9714 1.02317 16.2475C0.341056 15.5238 0 14.6477 0 13.619V3.71429C0 2.68568 0.341056 1.80952 1.02317 1.08581C1.70512 0.361937 2.53073 0 3.5 0H17.5C18.4693 0 19.2949 0.361937 19.9768 1.08581C20.6589 1.80952 21 2.68568 21 3.71429V13.619C21 14.6477 20.6589 15.5238 19.9768 16.2475C19.2949 16.9714 18.4693 17.3333 17.5 17.3333H3.5ZM3.5 4.33333H17.5C17.9576 4.33333 18.3846 4.4167 18.781 4.58343C19.2099 4.76361 19.8333 4.48988 19.8333 4.02465V3.71429C19.8333 3.03333 19.6048 2.45044 19.1478 1.9656C18.6909 1.4806 18.1417 1.2381 17.5 1.2381H3.5C2.85833 1.2381 2.30907 1.4806 1.8522 1.9656C1.39518 2.45044 1.16667 3.03333 1.16667 3.71429V4.02465C1.16667 4.48988 1.79008 4.76361 2.219 4.58343C2.61536 4.4167 3.04236 4.33333 3.5 4.33333ZM1.44138 6.88097C1.22456 7.33012 1.56611 7.80708 2.04903 7.93175L14.4331 11.1287C14.5782 11.17 14.727 11.1739 14.8794 11.1404C15.032 11.1072 15.1636 11.0366 15.2742 10.9287L19.1062 7.48982C19.4155 7.21225 19.5386 6.75627 19.281 6.4302C19.1442 6.25706 18.9813 6.10452 18.7924 5.97257C18.4096 5.70514 17.9788 5.57143 17.5 5.57143H3.5C2.90453 5.57143 2.39112 5.77415 1.95977 6.17958C1.74026 6.38599 1.56746 6.61979 1.44138 6.88097Z" fill="#8B8B8B"/>
</svg>
